<svg width="351" height="71" viewBox="0 0 351 71" fill="none" xmlns="http://www.w3.org/2000/svg">
<path d="M6.85436 10.6365C7.76567 12.576 23.7137 41.9719 23.9985 42.2144C24.2263 42.4568 27.1311 37.0625 27.1311 36.3958C27.1311 35.7897 13.8031 11.0607 12.7779 9.72732C12.4362 9.30305 10.8983 9 9.13264 9H6L6.85436 10.6365Z" fill={color}/>
<path d="M18.0749 10.3334C18.7583 11.7881 29.4663 31.6076 29.6941 31.9106C29.9219 32.2137 32.8268 26.4557 32.7698 25.7284C32.7698 25.3647 30.7763 21.4857 28.3841 17.1824L23.9984 9.30304L20.6949 9.1212C17.3914 8.93937 17.3914 8.93937 18.0749 10.3334Z" fill={color}/>
<path d="M42.8513 16.5762C40.8008 20.3947 39.0921 23.7889 39.0921 24.1525C39.0921 24.5768 40.1743 24.7586 42.0539 24.6374L45.0726 24.4556L47.18 20.5765C48.3192 18.4552 49.5722 16.3944 49.914 16.0308C50.7114 15.1822 54.5845 15.061 54.3566 15.9701C54.2427 16.3338 52.7618 19.2431 51.0531 22.516L47.9205 28.3952H36.3582L31.4599 37.608L26.5615 46.7601L30.8903 54.8819C33.2825 59.367 35.3899 62.8218 35.5608 62.7006C35.6747 62.5188 38.6365 57.2457 42.0539 51.0028L48.2053 39.6081L45.3004 39.4263C43.6487 39.3051 42.1108 39.4869 41.8261 39.7899C41.4843 40.1536 40.0604 42.6386 38.5225 45.4267C37.0417 48.2148 35.6177 50.4573 35.3899 50.3967C35.1621 50.3967 34.4786 49.5482 33.909 48.5784L32.9407 46.8813L36.1873 40.8203L39.4908 34.7593L51.224 34.1532L57.4323 22.6373C60.9067 16.2732 63.8115 10.7577 63.9824 10.3334C64.2102 9.7879 62.2737 9.60607 55.4388 9.60607H46.6674L42.8513 16.5762Z" fill={color}/>
<path d="M6.85436 10.6365C7.76567 12.576 23.7137 41.9719 23.9985 42.2144C24.2263 42.4568 27.1311 37.0625 27.1311 36.3958C27.1311 35.7897 13.8031 11.0607 12.7779 9.72732C12.4362 9.30305 10.8983 9 9.13264 9H6L6.85436 10.6365Z" fill={color}/>
<path d="M18.0749 10.3334C18.7583 11.7881 29.4663 31.6076 29.6941 31.9106C29.9219 32.2137 32.8268 26.4557 32.7698 25.7284C32.7698 25.3647 30.7763 21.4857 28.3841 17.1824L23.9984 9.30304L20.6949 9.1212C17.3914 8.93937 17.3914 8.93937 18.0749 10.3334Z" fill={color}/>
<path d="M42.8513 16.5762C40.8008 20.3947 39.0921 23.7889 39.0921 24.1525C39.0921 24.5768 40.1743 24.7586 42.0539 24.6374L45.0726 24.4556L47.18 20.5765C48.3192 18.4552 49.5722 16.3944 49.914 16.0308C50.7114 15.1822 54.5845 15.061 54.3566 15.9701C54.2427 16.3338 52.7618 19.2431 51.0531 22.516L47.9205 28.3952H36.3582L31.4599 37.608L26.5615 46.7601L30.8903 54.8819C33.2825 59.367 35.3899 62.8218 35.5608 62.7006C35.6747 62.5188 38.6365 57.2457 42.0539 51.0028L48.2053 39.6081L45.3004 39.4263C43.6487 39.3051 42.1108 39.4869 41.8261 39.7899C41.4843 40.1536 40.0604 42.6386 38.5225 45.4267C37.0417 48.2148 35.6177 50.4573 35.3899 50.3967C35.1621 50.3967 34.4786 49.5482 33.909 48.5784L32.9407 46.8813L36.1873 40.8203L39.4908 34.7593L51.224 34.1532L57.4323 22.6373C60.9067 16.2732 63.8115 10.7577 63.9824 10.3334C64.2102 9.7879 62.2737 9.60607 55.4388 9.60607H46.6674L42.8513 16.5762Z" fill={color}/>
<path d="M69.4394 57.7547C67.2448 57.7547 65.2834 57.2609 63.5551 56.2733C61.8269 55.2857 60.4689 53.9278 59.4814 52.1995C58.4938 50.4713 58 48.5098 58 46.3152C58 44.0932 58.4938 42.118 59.4814 40.3898C60.4689 38.6615 61.8269 37.3036 63.5551 36.316C65.2834 35.3284 67.2448 34.8346 69.4394 34.8346C71.6341 34.8346 73.5818 35.3284 75.2826 36.316C77.0109 37.3036 78.3688 38.6615 79.3564 40.3898C80.3439 42.118 80.8514 44.0932 80.8789 46.3152C80.8789 48.5098 80.3714 50.4713 79.3564 52.1995C78.3688 53.9278 77.0109 55.2857 75.2826 56.2733C73.5818 57.2609 71.6341 57.7547 69.4394 57.7547ZM69.4394 54.8742C71.0305 54.8742 72.457 54.5039 73.7189 53.7632C74.9808 53.0225 75.9684 52.0075 76.6817 50.7182C77.3949 49.4288 77.7516 47.9612 77.7516 46.3152C77.7516 44.6692 77.3949 43.2016 76.6817 41.9123C75.9684 40.5955 74.9808 39.5668 73.7189 38.8261C72.457 38.0854 71.0305 37.7151 69.4394 37.7151C67.8483 37.7151 66.4218 38.0854 65.1599 38.8261C63.898 39.5668 62.8967 40.5955 62.1561 41.9123C61.4428 43.2016 61.0862 44.6692 61.0862 46.3152C61.0862 47.9612 61.4428 49.4288 62.1561 50.7182C62.8967 52.0075 63.898 53.0225 65.1599 53.7632C66.4218 54.5039 67.8483 54.8742 69.4394 54.8742Z" fill={color}/>
<path d="M89.6636 67.3424C89.4441 67.3424 89.1972 67.2875 88.9229 67.1778C87.9902 66.7663 87.7296 66.1079 88.141 65.2026L92.256 56.191L92.2148 56.1498L83.0386 37.139C82.8465 36.7275 82.8191 36.3434 82.9563 35.9868C83.0934 35.6302 83.3678 35.3558 83.7792 35.1638C84.6845 34.7523 85.3429 34.9855 85.7544 35.8634L93.7785 52.7756L101.432 35.9045C101.844 35.0267 102.502 34.7798 103.407 35.1638C104.34 35.5479 104.601 36.1925 104.189 37.0978L90.8569 66.396C90.5826 67.0269 90.1848 67.3424 89.6636 67.3424Z" fill={color}/>
<path d="M117.452 57.7547C115.34 57.7547 113.447 57.2609 111.774 56.2733C110.1 55.2583 108.77 53.8866 107.782 52.1584C106.822 50.4301 106.342 48.4824 106.342 46.3152C106.342 44.1206 106.836 42.1592 107.823 40.4309C108.838 38.7026 110.21 37.3447 111.938 36.3571C113.667 35.3421 115.614 34.8346 117.782 34.8346C119.949 34.8346 121.883 35.3421 123.584 36.3571C125.312 37.3447 126.67 38.7026 127.657 40.4309C128.672 42.1592 129.194 44.1206 129.221 46.3152V55.9852C129.221 56.4516 129.07 56.8357 128.768 57.1374C128.467 57.4117 128.083 57.5489 127.616 57.5489C127.15 57.5489 126.766 57.4117 126.464 57.1374C126.162 56.8357 126.011 56.4516 126.011 55.9852V53.4752C125.079 54.7919 123.872 55.8344 122.39 56.6025C120.909 57.3706 119.263 57.7547 117.452 57.7547ZM117.782 54.8742C119.373 54.8742 120.785 54.5039 122.02 53.7632C123.282 53.0225 124.269 52.0075 124.983 50.7182C125.723 49.4014 126.094 47.9337 126.094 46.3152C126.094 44.6692 125.723 43.2016 124.983 41.9123C124.269 40.6229 123.282 39.6079 122.02 38.8672C120.785 38.0991 119.373 37.7151 117.782 37.7151C116.218 37.7151 114.805 38.0991 113.543 38.8672C112.281 39.6079 111.28 40.6229 110.539 41.9123C109.799 43.2016 109.428 44.6692 109.428 46.3152C109.428 47.9337 109.799 49.4014 110.539 50.7182C111.28 52.0075 112.281 53.0225 113.543 53.7632C114.805 54.5039 116.218 54.8742 117.782 54.8742Z" fill={color}/>
<path d="M145.3 57.7547C143.133 57.7547 141.213 57.2746 139.539 56.3144C137.866 55.3269 136.549 53.9689 135.589 52.2407C134.656 50.5124 134.19 48.5373 134.19 46.3152C134.19 44.0657 134.684 42.0769 135.671 40.3486C136.659 38.6203 138.017 37.2761 139.745 36.316C141.473 35.3284 143.435 34.8346 145.629 34.8346C147.852 34.8346 149.813 35.3284 151.514 36.316C153.242 37.2761 154.586 38.6203 155.546 40.3486C156.534 42.0769 157.041 44.0657 157.069 46.3152V54.7096C157.069 56.9317 156.575 58.9205 155.588 60.6762C154.6 62.4594 153.256 63.8584 151.555 64.8734C149.854 65.9159 147.906 66.4371 145.712 66.4371C143.545 66.4371 141.638 66.0256 139.992 65.2026C138.346 64.4071 136.988 63.3098 135.918 61.9107C135.617 61.5815 135.479 61.2249 135.507 60.8408C135.562 60.4568 135.767 60.1413 136.124 59.8944C136.481 59.6475 136.878 59.5652 137.317 59.6475C137.756 59.7298 138.099 59.9356 138.346 60.2647C139.142 61.2523 140.157 62.0479 141.391 62.6514C142.653 63.2549 144.107 63.5567 145.753 63.5567C147.289 63.5567 148.675 63.1863 149.909 62.4456C151.143 61.705 152.117 60.6625 152.831 59.3183C153.571 57.9741 153.942 56.3967 153.942 54.5862V52.6933C153.119 54.257 151.953 55.4915 150.444 56.3967C148.963 57.302 147.248 57.7547 145.3 57.7547ZM145.629 54.8742C147.248 54.8742 148.675 54.5176 149.909 53.8043C151.171 53.0637 152.158 52.0487 152.872 50.7593C153.585 49.47 153.942 47.9886 153.942 46.3152C153.942 44.6418 153.585 43.1605 152.872 41.8711C152.158 40.5543 151.171 39.5393 149.909 38.8261C148.675 38.0854 147.248 37.7151 145.629 37.7151C144.011 37.7151 142.571 38.0854 141.309 38.8261C140.047 39.5393 139.059 40.5543 138.346 41.8711C137.633 43.1605 137.276 44.6418 137.276 46.3152C137.276 47.9886 137.633 49.47 138.346 50.7593C139.059 52.0487 140.047 53.0637 141.309 53.8043C142.571 54.5176 144.011 54.8742 145.629 54.8742Z" fill={color}/>
<path d="M173.436 57.7547C171.214 57.7547 169.239 57.2746 167.511 56.3144C165.81 55.3269 164.466 53.9689 163.478 52.2407C162.518 50.5124 162.038 48.5373 162.038 46.3152C162.038 44.0657 162.491 42.0906 163.396 40.3898C164.329 38.6615 165.604 37.3036 167.223 36.316C168.841 35.3284 170.707 34.8346 172.819 34.8346C174.904 34.8346 176.715 35.3147 178.251 36.2748C179.814 37.2076 181.021 38.5106 181.872 40.184C182.722 41.8574 183.147 43.764 183.147 45.9037C183.147 46.3426 183.01 46.6993 182.736 46.9736C182.462 47.2205 182.105 47.3439 181.666 47.3439H165.042C165.206 48.8253 165.659 50.1421 166.4 51.2943C167.14 52.419 168.114 53.3106 169.321 53.9689C170.528 54.5999 171.9 54.9154 173.436 54.9154C174.424 54.9154 175.411 54.7508 176.399 54.4216C177.414 54.065 178.223 53.626 178.827 53.1048C179.129 52.8579 179.471 52.7345 179.856 52.7345C180.24 52.707 180.569 52.8031 180.843 53.0225C181.2 53.3517 181.378 53.7083 181.378 54.0924C181.405 54.4764 181.255 54.8056 180.925 55.08C180.02 55.8481 178.868 56.4928 177.469 57.014C176.07 57.5078 174.726 57.7547 173.436 57.7547ZM172.819 37.6739C170.707 37.6739 168.965 38.3323 167.593 39.6491C166.221 40.9384 165.399 42.6255 165.124 44.7104H180.185C179.965 42.6255 179.197 40.9384 177.88 39.6491C176.591 38.3323 174.904 37.6739 172.819 37.6739Z" fill={color}/>
<path d="M190.071 57.5489C189.029 57.5489 188.507 57.0277 188.507 55.9852V36.604C188.507 35.5616 189.029 35.0404 190.071 35.0404C191.114 35.0404 191.635 35.5616 191.635 36.604V38.3734C192.458 37.2761 193.473 36.412 194.68 35.7811C195.887 35.1227 197.217 34.7935 198.671 34.7935C199.933 34.7935 200.907 34.9718 201.593 35.3284C202.279 35.685 202.539 36.2063 202.375 36.8921C202.238 37.523 201.908 37.8522 201.387 37.8797C200.893 37.8797 200.304 37.8522 199.618 37.7974C198.081 37.6602 196.71 37.8248 195.503 38.2911C194.323 38.7301 193.377 39.4159 192.664 40.3486C191.978 41.2813 191.635 42.3923 191.635 43.6817V55.9852C191.635 57.0277 191.114 57.5489 190.071 57.5489Z" fill={color}/>
<path d="M229.697 57.9604C227.063 57.9604 224.731 57.398 222.701 56.2733C220.699 55.1485 219.272 53.6535 218.422 51.788C218.202 51.3491 218.189 50.9513 218.381 50.5947C218.6 50.2107 218.957 49.95 219.451 49.8129C219.835 49.7032 220.205 49.7443 220.562 49.9363C220.946 50.1284 221.234 50.4164 221.426 50.8005C222.057 52.0075 223.099 52.9951 224.553 53.7632C226.007 54.5313 227.722 54.9154 229.697 54.9154C231.864 54.9154 233.647 54.3941 235.046 53.3517C236.473 52.2818 237.186 50.7456 237.186 48.743C237.186 47.0696 236.569 45.6294 235.334 44.4224C234.1 43.2153 232.166 42.4472 229.532 42.118C226.322 41.734 223.812 40.7464 222.002 39.1553C220.191 37.5368 219.286 35.5616 219.286 33.2298C219.286 31.5564 219.725 30.1025 220.603 28.868C221.508 27.6335 222.743 26.6871 224.306 26.0287C225.87 25.3429 227.667 25 229.697 25C231.974 25 233.921 25.5212 235.54 26.5637C237.158 27.5787 238.407 28.7857 239.284 30.1848C239.559 30.6237 239.641 31.0489 239.531 31.4604C239.449 31.8719 239.216 32.1874 238.832 32.4068C238.42 32.5989 237.995 32.6263 237.556 32.4891C237.145 32.352 236.829 32.0914 236.61 31.7073C235.979 30.7472 235.115 29.9105 234.017 29.1972C232.947 28.4565 231.494 28.0725 229.656 28.045C227.488 28.045 225.746 28.5114 224.43 29.4441C223.113 30.3494 222.454 31.6799 222.454 33.4356C222.454 34.8346 223.017 36.0554 224.142 37.0978C225.294 38.1403 227.324 38.8672 230.232 39.2787C233.661 39.7725 236.198 40.8287 237.844 42.4472C239.518 44.0383 240.354 46.1232 240.354 48.7019C240.354 50.677 239.874 52.3641 238.914 53.7632C237.981 55.1348 236.706 56.1773 235.087 56.8905C233.469 57.6038 231.672 57.9604 229.697 57.9604Z" fill={color}/>
<path d="M256.901 57.7547C254.706 57.7547 252.745 57.2609 251.016 56.2733C249.288 55.2857 247.93 53.9278 246.943 52.1995C245.955 50.4713 245.461 48.5098 245.461 46.3152C245.461 44.0932 245.955 42.118 246.943 40.3898C247.93 38.6615 249.288 37.3036 251.016 36.316C252.745 35.3284 254.706 34.8346 256.901 34.8346C259.095 34.8346 261.043 35.3284 262.744 36.316C264.472 37.3036 265.83 38.6615 266.818 40.3898C267.805 42.118 268.313 44.0932 268.34 46.3152C268.34 48.5098 267.833 50.4713 266.818 52.1995C265.83 53.9278 264.472 55.2857 262.744 56.2733C261.043 57.2609 259.095 57.7547 256.901 57.7547ZM256.901 54.8742C258.492 54.8742 259.918 54.5039 261.18 53.7632C262.442 53.0225 263.43 52.0075 264.143 50.7182C264.856 49.4288 265.213 47.9612 265.213 46.3152C265.213 44.6692 264.856 43.2016 264.143 41.9123C263.43 40.5955 262.442 39.5668 261.18 38.8261C259.918 38.0854 258.492 37.7151 256.901 37.7151C255.31 37.7151 253.883 38.0854 252.621 38.8261C251.359 39.5668 250.358 40.5955 249.617 41.9123C248.904 43.2016 248.547 44.6692 248.547 46.3152C248.547 47.9612 248.904 49.4288 249.617 50.7182C250.358 52.0075 251.359 53.0225 252.621 53.7632C253.883 54.5039 255.31 54.8742 256.901 54.8742Z" fill={color}/>
<path d="M284.543 57.7547C282.376 57.7547 280.442 57.2609 278.741 56.2733C277.068 55.2583 275.737 53.8866 274.749 52.1584C273.789 50.4301 273.309 48.4824 273.309 46.3152C273.309 44.1206 273.776 42.1592 274.708 40.4309C275.641 38.7026 276.917 37.3447 278.535 36.3571C280.154 35.3421 282.019 34.8346 284.131 34.8346C287.561 34.8346 290.345 36.1514 292.485 38.7849C292.786 39.1141 292.896 39.4708 292.814 39.8548C292.732 40.2114 292.498 40.5269 292.114 40.8012C291.813 41.0207 291.47 41.103 291.086 41.0481C290.729 40.9658 290.414 40.7601 290.139 40.4309C288.548 38.6203 286.546 37.7151 284.131 37.7151C282.595 37.7151 281.237 38.0854 280.058 38.8261C278.906 39.5668 278 40.5818 277.342 41.8711C276.711 43.1605 276.395 44.6418 276.395 46.3152C276.395 47.9612 276.738 49.4288 277.424 50.7182C278.11 52.0075 279.07 53.0225 280.305 53.7632C281.539 54.5039 282.952 54.8742 284.543 54.8742C286.738 54.8742 288.507 54.2844 289.851 53.1048C290.18 52.8305 290.523 52.6796 290.88 52.6522C291.237 52.6247 291.566 52.7345 291.867 52.9814C292.197 53.2831 292.375 53.626 292.402 54.0101C292.457 54.3942 292.334 54.7233 292.032 54.9977C290.029 56.8357 287.533 57.7547 284.543 57.7547Z" fill={color}/>
<path d="M301.278 57.5489C300.785 57.5489 300.387 57.4117 300.085 57.1374C299.811 56.8357 299.674 56.4379 299.674 55.9441V36.6452C299.674 36.1514 299.811 35.7673 300.085 35.493C300.387 35.1912 300.785 35.0404 301.278 35.0404C301.745 35.0404 302.115 35.1912 302.389 35.493C302.691 35.7673 302.842 36.1514 302.842 36.6452V55.9441C302.842 56.4379 302.691 56.8357 302.389 57.1374C302.115 57.4117 301.745 57.5489 301.278 57.5489ZM301.237 30.7609C300.634 30.7609 300.112 30.5414 299.674 30.1025C299.235 29.6636 299.015 29.1286 299.015 28.4977C299.015 27.8119 299.235 27.2769 299.674 26.8929C300.14 26.4814 300.675 26.2756 301.278 26.2756C301.854 26.2756 302.362 26.4814 302.801 26.8929C303.267 27.2769 303.5 27.8119 303.5 28.4977C303.5 29.1286 303.281 29.6636 302.842 30.1025C302.403 30.5414 301.868 30.7609 301.237 30.7609Z" fill={color}/>
<path d="M320.827 57.7547C318.714 57.7547 316.822 57.2609 315.148 56.2733C313.475 55.2583 312.144 53.8866 311.157 52.1584C310.197 50.4301 309.717 48.4824 309.717 46.3152C309.717 44.1206 310.21 42.1592 311.198 40.4309C312.213 38.7026 313.585 37.3447 315.313 36.3571C317.041 35.3421 318.989 34.8346 321.156 34.8346C323.323 34.8346 325.257 35.3421 326.958 36.3571C328.686 37.3447 330.044 38.7026 331.032 40.4309C332.047 42.1592 332.568 44.1206 332.595 46.3152V55.9852C332.595 56.4516 332.444 56.8357 332.143 57.1374C331.841 57.4117 331.457 57.5489 330.991 57.5489C330.524 57.5489 330.14 57.4117 329.838 57.1374C329.537 56.8357 329.386 56.4516 329.386 55.9852V53.4752C328.453 54.7919 327.246 55.8344 325.765 56.6025C324.283 57.3706 322.637 57.7547 320.827 57.7547ZM321.156 54.8742C322.747 54.8742 324.16 54.5039 325.394 53.7632C326.656 53.0225 327.644 52.0075 328.357 50.7182C329.098 49.4014 329.468 47.9337 329.468 46.3152C329.468 44.6692 329.098 43.2016 328.357 41.9123C327.644 40.6229 326.656 39.6079 325.394 38.8672C324.16 38.0991 322.747 37.7151 321.156 37.7151C319.592 37.7151 318.179 38.0991 316.918 38.8672C315.656 39.6079 314.654 40.6229 313.914 41.9123C313.173 43.2016 312.803 44.6692 312.803 46.3152C312.803 47.9337 313.173 49.4014 313.914 50.7182C314.654 52.0075 315.656 53.0225 316.918 53.7632C318.179 54.5039 319.592 54.8742 321.156 54.8742Z" fill={color}/>
<path d="M343.613 57.5489C341.967 57.5489 340.609 56.8905 339.54 55.5738C338.47 54.2296 337.935 52.515 337.935 50.4301V26.9752C337.935 26.5088 338.072 26.1385 338.346 25.8641C338.648 25.5624 339.032 25.4115 339.498 25.4115C339.965 25.4115 340.335 25.5624 340.61 25.8641C340.911 26.1385 341.062 26.5088 341.062 26.9752V50.4301C341.062 51.6097 341.295 52.5699 341.762 53.3106C342.255 54.0512 342.873 54.4216 343.613 54.4216H344.642C345.054 54.4216 345.383 54.5725 345.63 54.8742C345.877 55.1485 346 55.5189 346 55.9852C346 56.4516 345.822 56.8357 345.465 57.1374C345.136 57.4117 344.697 57.5489 344.148 57.5489H343.613Z" fill={color}/>
<path d="M69.4394 57.7547C67.2448 57.7547 65.2834 57.2609 63.5551 56.2733C61.8269 55.2857 60.4689 53.9278 59.4814 52.1995C58.4938 50.4713 58 48.5098 58 46.3152C58 44.0932 58.4938 42.118 59.4814 40.3898C60.4689 38.6615 61.8269 37.3036 63.5551 36.316C65.2834 35.3284 67.2448 34.8346 69.4394 34.8346C71.6341 34.8346 73.5818 35.3284 75.2826 36.316C77.0109 37.3036 78.3688 38.6615 79.3564 40.3898C80.3439 42.118 80.8514 44.0932 80.8789 46.3152C80.8789 48.5098 80.3714 50.4713 79.3564 52.1995C78.3688 53.9278 77.0109 55.2857 75.2826 56.2733C73.5818 57.2609 71.6341 57.7547 69.4394 57.7547ZM69.4394 54.8742C71.0305 54.8742 72.457 54.5039 73.7189 53.7632C74.9808 53.0225 75.9684 52.0075 76.6817 50.7182C77.3949 49.4288 77.7516 47.9612 77.7516 46.3152C77.7516 44.6692 77.3949 43.2016 76.6817 41.9123C75.9684 40.5955 74.9808 39.5668 73.7189 38.8261C72.457 38.0854 71.0305 37.7151 69.4394 37.7151C67.8483 37.7151 66.4218 38.0854 65.1599 38.8261C63.898 39.5668 62.8967 40.5955 62.1561 41.9123C61.4428 43.2016 61.0862 44.6692 61.0862 46.3152C61.0862 47.9612 61.4428 49.4288 62.1561 50.7182C62.8967 52.0075 63.898 53.0225 65.1599 53.7632C66.4218 54.5039 67.8483 54.8742 69.4394 54.8742Z" fill={color}/>
<path d="M117.452 57.7547C115.34 57.7547 113.447 57.2609 111.774 56.2733C110.1 55.2583 108.77 53.8866 107.782 52.1584C106.822 50.4301 106.342 48.4824 106.342 46.3152C106.342 44.1206 106.836 42.1592 107.823 40.4309C108.838 38.7026 110.21 37.3447 111.938 36.3571C113.667 35.3421 115.614 34.8346 117.782 34.8346C119.949 34.8346 121.883 35.3421 123.584 36.3571C125.312 37.3447 126.67 38.7026 127.657 40.4309C128.672 42.1592 129.194 44.1206 129.221 46.3152V55.9852C129.221 56.4516 129.07 56.8357 128.768 57.1374C128.467 57.4117 128.083 57.5489 127.616 57.5489C127.15 57.5489 126.766 57.4117 126.464 57.1374C126.162 56.8357 126.011 56.4516 126.011 55.9852V53.4752C125.079 54.7919 123.872 55.8344 122.39 56.6025C120.909 57.3706 119.263 57.7547 117.452 57.7547ZM117.782 54.8742C119.373 54.8742 120.785 54.5039 122.02 53.7632C123.282 53.0225 124.269 52.0075 124.983 50.7182C125.723 49.4014 126.094 47.9337 126.094 46.3152C126.094 44.6692 125.723 43.2016 124.983 41.9123C124.269 40.6229 123.282 39.6079 122.02 38.8672C120.785 38.0991 119.373 37.7151 117.782 37.7151C116.218 37.7151 114.805 38.0991 113.543 38.8672C112.281 39.6079 111.28 40.6229 110.539 41.9123C109.799 43.2016 109.428 44.6692 109.428 46.3152C109.428 47.9337 109.799 49.4014 110.539 50.7182C111.28 52.0075 112.281 53.0225 113.543 53.7632C114.805 54.5039 116.218 54.8742 117.782 54.8742Z" fill={color}/>
<path d="M173.436 57.7547C171.214 57.7547 169.239 57.2746 167.511 56.3144C165.81 55.3269 164.466 53.9689 163.478 52.2407C162.518 50.5124 162.038 48.5373 162.038 46.3152C162.038 44.0657 162.491 42.0906 163.396 40.3898C164.329 38.6615 165.604 37.3036 167.223 36.316C168.841 35.3284 170.707 34.8346 172.819 34.8346C174.904 34.8346 176.715 35.3147 178.251 36.2748C179.814 37.2076 181.021 38.5106 181.872 40.184C182.722 41.8574 183.147 43.764 183.147 45.9037C183.147 46.3426 183.01 46.6993 182.736 46.9736C182.462 47.2205 182.105 47.3439 181.666 47.3439H165.042C165.206 48.8253 165.659 50.1421 166.4 51.2943C167.14 52.419 168.114 53.3106 169.321 53.9689C170.528 54.5999 171.9 54.9154 173.436 54.9154C174.424 54.9154 175.411 54.7508 176.399 54.4216C177.414 54.065 178.223 53.626 178.827 53.1048C179.129 52.8579 179.471 52.7345 179.856 52.7345C180.24 52.707 180.569 52.8031 180.843 53.0225C181.2 53.3517 181.378 53.7083 181.378 54.0924C181.405 54.4764 181.255 54.8056 180.925 55.08C180.02 55.8481 178.868 56.4928 177.469 57.014C176.07 57.5078 174.726 57.7547 173.436 57.7547ZM172.819 37.6739C170.707 37.6739 168.965 38.3323 167.593 39.6491C166.221 40.9384 165.399 42.6255 165.124 44.7104H180.185C179.965 42.6255 179.197 40.9384 177.88 39.6491C176.591 38.3323 174.904 37.6739 172.819 37.6739Z" fill={color}/>
<path d="M190.071 57.5489C189.029 57.5489 188.507 57.0277 188.507 55.9852V36.604C188.507 35.5616 189.029 35.0404 190.071 35.0404C191.114 35.0404 191.635 35.5616 191.635 36.604V38.3734C192.458 37.2761 193.473 36.412 194.68 35.7811C195.887 35.1227 197.217 34.7935 198.671 34.7935C199.933 34.7935 200.907 34.9718 201.593 35.3284C202.279 35.685 202.539 36.2063 202.375 36.8921C202.238 37.523 201.908 37.8522 201.387 37.8797C200.893 37.8797 200.304 37.8522 199.618 37.7974C198.081 37.6602 196.71 37.8248 195.503 38.2911C194.323 38.7301 193.377 39.4159 192.664 40.3486C191.978 41.2813 191.635 42.3923 191.635 43.6817V55.9852C191.635 57.0277 191.114 57.5489 190.071 57.5489Z" fill={color}/>
</svg>
