<svg width="202" height="41" viewBox="0 0 202 41" fill="none" xmlns="http://www.w3.org/2000/svg">
<path d="M3.94481 6.12123C4.46927 7.23743 13.6473 24.1547 13.8112 24.2943C13.9423 24.4338 15.614 21.3294 15.614 20.9457C15.614 20.5969 7.94381 6.3654 7.3538 5.59802C7.15712 5.35385 6.2721 5.17944 5.25596 5.17944H3.45312L3.94481 6.12123Z" fill={color}/>
<path d="M10.4022 5.94682C10.7955 6.78396 16.9579 18.1901 17.0891 18.3645C17.2202 18.5389 18.8919 15.2252 18.8591 14.8066C18.8591 14.5973 17.7118 12.3649 16.3351 9.88838L13.8112 5.35384L11.91 5.2492C10.0088 5.14455 10.0088 5.14455 10.4022 5.94682Z" fill={color}/>
<path d="M24.661 9.53956C23.481 11.7371 22.4976 13.6904 22.4976 13.8997C22.4976 14.1439 23.1204 14.2485 24.2021 14.1787L25.9394 14.0741L27.1522 11.8417C27.8077 10.6209 28.5289 9.43492 28.7256 9.22563C29.1845 8.7373 31.4134 8.66753 31.2823 9.19075C31.2167 9.40004 30.3645 11.0743 29.3811 12.9579L27.5783 16.3414H20.9242L18.1052 21.6433L15.2863 26.9103L17.7774 31.5844C19.1542 34.1656 20.367 36.1538 20.4653 36.0841C20.5309 35.9794 22.2354 32.9448 24.2021 29.352L27.7422 22.7944L26.0705 22.6897C25.1199 22.62 24.2349 22.7246 24.071 22.899C23.8743 23.1083 23.0548 24.5384 22.1698 26.143C21.3176 27.7475 20.4981 29.0381 20.367 29.0032C20.2359 29.0032 19.8425 28.5149 19.5147 27.9568L18.9575 26.9801L20.8259 23.492L22.727 20.0039L29.4795 19.6551L33.0524 13.0277C35.0519 9.36516 36.7236 6.19098 36.8219 5.94681C36.953 5.63288 35.8385 5.52824 31.9051 5.52824H26.8572L24.661 9.53956Z" fill={color}/>
<path d="M3.94481 6.12123C4.46927 7.23743 13.6473 24.1547 13.8112 24.2943C13.9423 24.4338 15.614 21.3294 15.614 20.9457C15.614 20.5969 7.94381 6.3654 7.3538 5.59802C7.15712 5.35385 6.2721 5.17944 5.25596 5.17944H3.45312L3.94481 6.12123Z" fill={color}/>
<path d="M10.4022 5.94682C10.7955 6.78396 16.9579 18.1901 17.0891 18.3645C17.2202 18.5389 18.8919 15.2252 18.8591 14.8066C18.8591 14.5973 17.7118 12.3649 16.3351 9.88838L13.8112 5.35384L11.91 5.2492C10.0088 5.14455 10.0088 5.14455 10.4022 5.94682Z" fill={color}/>
<path d="M24.661 9.53956C23.481 11.7371 22.4976 13.6904 22.4976 13.8997C22.4976 14.1439 23.1204 14.2485 24.2021 14.1787L25.9394 14.0741L27.1522 11.8417C27.8077 10.6209 28.5289 9.43492 28.7256 9.22563C29.1845 8.7373 31.4134 8.66753 31.2823 9.19075C31.2167 9.40004 30.3645 11.0743 29.3811 12.9579L27.5783 16.3414H20.9242L18.1052 21.6433L15.2863 26.9103L17.7774 31.5844C19.1542 34.1656 20.367 36.1538 20.4653 36.0841C20.5309 35.9794 22.2354 32.9448 24.2021 29.352L27.7422 22.7944L26.0705 22.6897C25.1199 22.62 24.2349 22.7246 24.071 22.899C23.8743 23.1083 23.0548 24.5384 22.1698 26.143C21.3176 27.7475 20.4981 29.0381 20.367 29.0032C20.2359 29.0032 19.8425 28.5149 19.5147 27.9568L18.9575 26.9801L20.8259 23.492L22.727 20.0039L29.4795 19.6551L33.0524 13.0277C35.0519 9.36516 36.7236 6.19098 36.8219 5.94681C36.953 5.63288 35.8385 5.52824 31.9051 5.52824H26.8572L24.661 9.53956Z" fill={color}/>
<path d="M39.9623 33.2377C38.6993 33.2377 37.5705 32.9535 36.5759 32.3852C35.5813 31.8168 34.7998 31.0354 34.2314 30.0407C33.6631 29.0461 33.3789 27.9173 33.3789 26.6543C33.3789 25.3755 33.6631 24.2388 34.2314 23.2442C34.7998 22.2496 35.5813 21.4681 36.5759 20.8998C37.5705 20.3314 38.6993 20.0473 39.9623 20.0473C41.2253 20.0473 42.3462 20.3314 43.325 20.8998C44.3196 21.4681 45.1011 22.2496 45.6695 23.2442C46.2378 24.2388 46.5299 25.3755 46.5457 26.6543C46.5457 27.9173 46.2536 29.0461 45.6695 30.0407C45.1011 31.0354 44.3196 31.8168 43.325 32.3852C42.3462 32.9535 41.2253 33.2377 39.9623 33.2377ZM39.9623 31.58C40.878 31.58 41.6989 31.3669 42.4251 30.9406C43.1514 30.5144 43.7197 29.9302 44.1302 29.1882C44.5407 28.4462 44.7459 27.6016 44.7459 26.6543C44.7459 25.7071 44.5407 24.8624 44.1302 24.1204C43.7197 23.3626 43.1514 22.7706 42.4251 22.3443C41.6989 21.9181 40.878 21.705 39.9623 21.705C39.0466 21.705 38.2257 21.9181 37.4994 22.3443C36.7732 22.7706 36.197 23.3626 35.7707 24.1204C35.3602 24.8624 35.155 25.7071 35.155 26.6543C35.155 27.6016 35.3602 28.4462 35.7707 29.1882C36.197 29.9302 36.7732 30.5144 37.4994 30.9406C38.2257 31.3669 39.0466 31.58 39.9623 31.58Z" fill={color}/>
<path d="M51.6012 38.7554C51.4749 38.7554 51.3328 38.7239 51.175 38.6607C50.6382 38.4239 50.4882 38.045 50.725 37.524L53.0932 32.3378L53.0695 32.3141L47.7886 21.3734C47.678 21.1366 47.6623 20.9156 47.7412 20.7103C47.8201 20.5051 47.978 20.3472 48.2148 20.2367C48.7358 19.9999 49.1147 20.1341 49.3515 20.6393L53.9694 30.3723L58.3741 20.663C58.6109 20.1578 58.9898 20.0157 59.5108 20.2367C60.0475 20.4577 60.1975 20.8287 59.9607 21.3497L52.288 38.2108C52.1301 38.5739 51.9012 38.7554 51.6012 38.7554Z" fill={color}/>
<path d="M67.5936 33.2377C66.378 33.2377 65.2887 32.9535 64.3256 32.3852C63.3626 31.801 62.5969 31.0117 62.0286 30.0171C61.476 29.0224 61.1997 27.9015 61.1997 26.6543C61.1997 25.3913 61.4839 24.2625 62.0522 23.2679C62.6364 22.2733 63.4258 21.4918 64.4204 20.9235C65.415 20.3393 66.5359 20.0473 67.7831 20.0473C69.0303 20.0473 70.1433 20.3393 71.1222 20.9235C72.1168 21.4918 72.8983 22.2733 73.4666 23.2679C74.0507 24.2625 74.3507 25.3913 74.3665 26.6543V32.2194C74.3665 32.4878 74.2797 32.7088 74.106 32.8825C73.9323 33.0404 73.7113 33.1193 73.4429 33.1193C73.1745 33.1193 72.9535 33.0404 72.7798 32.8825C72.6062 32.7088 72.5193 32.4878 72.5193 32.2194V30.7749C71.9826 31.5327 71.2879 32.1326 70.4354 32.5746C69.5829 33.0167 68.6356 33.2377 67.5936 33.2377ZM67.7831 31.58C68.6988 31.58 69.5118 31.3669 70.2223 30.9406C70.9485 30.5144 71.5168 29.9302 71.9273 29.1882C72.3536 28.4304 72.5667 27.5858 72.5667 26.6543C72.5667 25.7071 72.3536 24.8624 71.9273 24.1204C71.5168 23.3784 70.9485 22.7943 70.2223 22.368C69.5118 21.926 68.6988 21.705 67.7831 21.705C66.8832 21.705 66.0702 21.926 65.3439 22.368C64.6177 22.7943 64.0415 23.3784 63.6152 24.1204C63.1889 24.8624 62.9758 25.7071 62.9758 26.6543C62.9758 27.5858 63.1889 28.4304 63.6152 29.1882C64.0415 29.9302 64.6177 30.5144 65.3439 30.9406C66.0702 31.3669 66.8832 31.58 67.7831 31.58Z" fill={color}/>
<path d="M83.6201 33.2377C82.3729 33.2377 81.2678 32.9614 80.3047 32.4089C79.3417 31.8405 78.5839 31.059 78.0313 30.0644C77.4946 29.0698 77.2262 27.9331 77.2262 26.6543C77.2262 25.3598 77.5104 24.2152 78.0787 23.2206C78.6471 22.2259 79.4285 21.4523 80.4231 20.8998C81.4178 20.3314 82.5466 20.0473 83.8096 20.0473C85.0883 20.0473 86.2172 20.3314 87.196 20.8998C88.1906 21.4523 88.9642 22.2259 89.5167 23.2206C90.0851 24.2152 90.3771 25.3598 90.3929 26.6543V31.4853C90.3929 32.7641 90.1087 33.9087 89.5404 34.9191C88.972 35.9453 88.1985 36.7504 87.2197 37.3346C86.2408 37.9345 85.1199 38.2344 83.8569 38.2344C82.6097 38.2344 81.5125 37.9976 80.5652 37.524C79.618 37.0662 78.8365 36.4347 78.2208 35.6295C78.0471 35.4401 77.9682 35.2348 77.984 35.0138C78.0155 34.7928 78.134 34.6112 78.3392 34.4691C78.5444 34.327 78.7734 34.2797 79.026 34.327C79.2786 34.3744 79.4759 34.4928 79.618 34.6823C80.0758 35.2506 80.6599 35.7084 81.3704 36.0558C82.0966 36.4031 82.9334 36.5768 83.8806 36.5768C84.7647 36.5768 85.562 36.3636 86.2724 35.9374C86.9828 35.5111 87.5433 34.9112 87.9538 34.1376C88.38 33.364 88.5932 32.4562 88.5932 31.4143V30.3249C88.1195 31.2248 87.4486 31.9352 86.5803 32.4562C85.7277 32.9772 84.741 33.2377 83.6201 33.2377ZM83.8096 31.58C84.741 31.58 85.562 31.3748 86.2724 30.9643C86.9986 30.538 87.567 29.9539 87.9774 29.2119C88.3879 28.4699 88.5932 27.6174 88.5932 26.6543C88.5932 25.6913 88.3879 24.8388 87.9774 24.0968C87.567 23.339 86.9986 22.7548 86.2724 22.3443C85.562 21.9181 84.741 21.705 83.8096 21.705C82.8781 21.705 82.0492 21.9181 81.323 22.3443C80.5968 22.7548 80.0285 23.339 79.618 24.0968C79.2075 24.8388 79.0023 25.6913 79.0023 26.6543C79.0023 27.6174 79.2075 28.4699 79.618 29.2119C80.0285 29.9539 80.5968 30.538 81.323 30.9643C82.0492 31.3748 82.8781 31.58 83.8096 31.58Z" fill={color}/>
<path d="M99.8123 33.2377C98.5335 33.2377 97.3968 32.9614 96.4022 32.4089C95.4234 31.8405 94.6498 31.059 94.0815 30.0644C93.5289 29.0698 93.2526 27.9331 93.2526 26.6543C93.2526 25.3598 93.5131 24.2231 94.0341 23.2442C94.5709 22.2496 95.305 21.4681 96.2365 20.8998C97.1679 20.3314 98.2415 20.0473 99.4571 20.0473C100.657 20.0473 101.699 20.3235 102.583 20.8761C103.483 21.4129 104.178 22.1628 104.667 23.1258C105.156 24.0889 105.401 25.1861 105.401 26.4175C105.401 26.6701 105.322 26.8754 105.164 27.0332C105.006 27.1753 104.801 27.2464 104.549 27.2464H94.9814C95.0761 28.0989 95.3366 28.8567 95.7628 29.5198C96.1891 30.167 96.7496 30.6801 97.4442 31.059C98.1389 31.4221 98.9282 31.6037 99.8123 31.6037C100.381 31.6037 100.949 31.509 101.517 31.3195C102.102 31.1143 102.567 30.8617 102.915 30.5617C103.088 30.4196 103.286 30.3486 103.507 30.3486C103.728 30.3328 103.917 30.3881 104.075 30.5144C104.28 30.7038 104.383 30.9091 104.383 31.1301C104.399 31.3511 104.312 31.5406 104.122 31.6984C103.601 32.1405 102.938 32.5115 102.133 32.8114C101.328 33.0956 100.554 33.2377 99.8123 33.2377ZM99.4571 21.6813C98.2415 21.6813 97.239 22.0602 96.4496 22.818C95.6602 23.56 95.1866 24.5309 95.0287 25.7308H103.696C103.57 24.5309 103.128 23.56 102.37 22.818C101.628 22.0602 100.657 21.6813 99.4571 21.6813Z" fill={color}/>
<path d="M109.386 33.1193C108.786 33.1193 108.486 32.8193 108.486 32.2194V21.0656C108.486 20.4656 108.786 20.1657 109.386 20.1657C109.986 20.1657 110.286 20.4656 110.286 21.0656V22.0839C110.759 21.4524 111.343 20.955 112.038 20.5919C112.733 20.213 113.498 20.0236 114.335 20.0236C115.061 20.0236 115.622 20.1262 116.016 20.3314C116.411 20.5367 116.561 20.8366 116.466 21.2313C116.387 21.5944 116.198 21.7839 115.898 21.7997C115.614 21.7997 115.274 21.7839 114.88 21.7523C113.996 21.6734 113.206 21.7681 112.512 22.0365C111.833 22.2891 111.288 22.6838 110.878 23.2206C110.483 23.7573 110.286 24.3967 110.286 25.1387V32.2194C110.286 32.8193 109.986 33.1193 109.386 33.1193Z" fill={color}/>
<path d="M132.19 33.3561C130.675 33.3561 129.333 33.0325 128.164 32.3852C127.012 31.7379 126.191 30.8775 125.701 29.8039C125.575 29.5513 125.567 29.3224 125.678 29.1172C125.804 28.8961 126.009 28.7462 126.293 28.6672C126.515 28.6041 126.728 28.6278 126.933 28.7383C127.154 28.8488 127.32 29.0146 127.43 29.2356C127.793 29.9302 128.393 30.4986 129.23 30.9406C130.067 31.3827 131.053 31.6037 132.19 31.6037C133.437 31.6037 134.464 31.3037 135.269 30.7038C136.09 30.0881 136.5 29.204 136.5 28.0515C136.5 27.0885 136.145 26.2596 135.434 25.565C134.724 24.8703 133.611 24.4283 132.095 24.2388C130.248 24.0178 128.804 23.4495 127.762 22.5338C126.72 21.6023 126.199 20.4656 126.199 19.1237C126.199 18.1607 126.451 17.3239 126.957 16.6135C127.478 15.903 128.188 15.3584 129.088 14.9795C129.988 14.5848 131.022 14.3875 132.19 14.3875C133.5 14.3875 134.621 14.6874 135.553 15.2873C136.484 15.8715 137.203 16.5661 137.708 17.3713C137.866 17.6239 137.913 17.8686 137.85 18.1054C137.803 18.3422 137.668 18.5238 137.447 18.6501C137.211 18.7606 136.966 18.7764 136.713 18.6974C136.476 18.6185 136.295 18.4685 136.169 18.2475C135.805 17.6949 135.308 17.2134 134.677 16.8029C134.061 16.3767 133.224 16.1557 132.166 16.1399C130.919 16.1399 129.917 16.4082 129.159 16.945C128.401 17.466 128.022 18.2317 128.022 19.2421C128.022 20.0473 128.346 20.7498 128.993 21.3497C129.656 21.9497 130.824 22.368 132.498 22.6048C134.471 22.889 135.932 23.4968 136.879 24.4283C137.842 25.344 138.324 26.5438 138.324 28.0278C138.324 29.1645 138.047 30.1355 137.495 30.9406C136.958 31.73 136.224 32.3299 135.292 32.7404C134.361 33.1509 133.327 33.3561 132.19 33.3561Z" fill={color}/>
<path d="M147.846 33.2377C146.583 33.2377 145.454 32.9535 144.46 32.3852C143.465 31.8168 142.683 31.0354 142.115 30.0407C141.547 29.0461 141.263 27.9173 141.263 26.6543C141.263 25.3755 141.547 24.2388 142.115 23.2442C142.683 22.2496 143.465 21.4681 144.46 20.8998C145.454 20.3314 146.583 20.0473 147.846 20.0473C149.109 20.0473 150.23 20.3314 151.209 20.8998C152.203 21.4681 152.985 22.2496 153.553 23.2442C154.122 24.2388 154.414 25.3755 154.429 26.6543C154.429 27.9173 154.137 29.0461 153.553 30.0407C152.985 31.0354 152.203 31.8168 151.209 32.3852C150.23 32.9535 149.109 33.2377 147.846 33.2377ZM147.846 31.58C148.762 31.58 149.583 31.3669 150.309 30.9406C151.035 30.5144 151.603 29.9302 152.014 29.1882C152.424 28.4462 152.63 27.6016 152.63 26.6543C152.63 25.7071 152.424 24.8624 152.014 24.1204C151.603 23.3626 151.035 22.7706 150.309 22.3443C149.583 21.9181 148.762 21.705 147.846 21.705C146.93 21.705 146.109 21.9181 145.383 22.3443C144.657 22.7706 144.081 23.3626 143.654 24.1204C143.244 24.8624 143.039 25.7071 143.039 26.6543C143.039 27.6016 143.244 28.4462 143.654 29.1882C144.081 29.9302 144.657 30.5144 145.383 30.9406C146.109 31.3669 146.93 31.58 147.846 31.58Z" fill={color}/>
<path d="M163.754 33.2377C162.507 33.2377 161.394 32.9535 160.415 32.3852C159.452 31.801 158.686 31.0117 158.118 30.0171C157.565 29.0224 157.289 27.9015 157.289 26.6543C157.289 25.3913 157.557 24.2625 158.094 23.2679C158.631 22.2733 159.365 21.4918 160.297 20.9235C161.228 20.3393 162.302 20.0473 163.517 20.0473C165.491 20.0473 167.093 20.8051 168.325 22.3207C168.498 22.5101 168.561 22.7153 168.514 22.9364C168.467 23.1416 168.332 23.3232 168.111 23.481C167.938 23.6073 167.74 23.6547 167.519 23.6231C167.314 23.5758 167.133 23.4574 166.975 23.2679C166.059 22.2259 164.907 21.705 163.517 21.705C162.633 21.705 161.852 21.9181 161.173 22.3443C160.51 22.7706 159.989 23.3547 159.61 24.0968C159.247 24.8388 159.065 25.6913 159.065 26.6543C159.065 27.6016 159.263 28.4462 159.657 29.1882C160.052 29.9302 160.604 30.5144 161.315 30.9406C162.025 31.3669 162.838 31.58 163.754 31.58C165.017 31.58 166.035 31.2406 166.809 30.5617C166.998 30.4039 167.196 30.317 167.401 30.3012C167.606 30.2854 167.796 30.3486 167.969 30.4907C168.159 30.6643 168.261 30.8617 168.277 31.0827C168.309 31.3037 168.238 31.4932 168.064 31.6511C166.912 32.7088 165.475 33.2377 163.754 33.2377Z" fill={color}/>
<path d="M173.385 33.1193C173.101 33.1193 172.872 33.0404 172.699 32.8825C172.541 32.7088 172.462 32.4799 172.462 32.1957V21.0892C172.462 20.8051 172.541 20.584 172.699 20.4262C172.872 20.2525 173.101 20.1657 173.385 20.1657C173.654 20.1657 173.867 20.2525 174.025 20.4262C174.198 20.584 174.285 20.8051 174.285 21.0892V32.1957C174.285 32.4799 174.198 32.7088 174.025 32.8825C173.867 33.0404 173.654 33.1193 173.385 33.1193ZM173.362 17.7028C173.014 17.7028 172.714 17.5765 172.462 17.3239C172.209 17.0713 172.083 16.7635 172.083 16.4004C172.083 16.0057 172.209 15.6978 172.462 15.4768C172.73 15.24 173.038 15.1216 173.385 15.1216C173.717 15.1216 174.009 15.24 174.261 15.4768C174.53 15.6978 174.664 16.0057 174.664 16.4004C174.664 16.7635 174.538 17.0713 174.285 17.3239C174.033 17.5765 173.725 17.7028 173.362 17.7028Z" fill={color}/>
<path d="M184.635 33.2377C183.42 33.2377 182.33 32.9535 181.367 32.3852C180.404 31.801 179.639 31.0117 179.07 30.0171C178.518 29.0224 178.241 27.9015 178.241 26.6543C178.241 25.3913 178.526 24.2625 179.094 23.2679C179.678 22.2733 180.467 21.4918 181.462 20.9235C182.457 20.3393 183.578 20.0473 184.825 20.0473C186.072 20.0473 187.185 20.3393 188.164 20.9235C189.158 21.4918 189.94 22.2733 190.508 23.2679C191.092 24.2625 191.392 25.3913 191.408 26.6543V32.2194C191.408 32.4878 191.321 32.7088 191.148 32.8825C190.974 33.0404 190.753 33.1193 190.485 33.1193C190.216 33.1193 189.995 33.0404 189.822 32.8825C189.648 32.7088 189.561 32.4878 189.561 32.2194V30.7749C189.024 31.5327 188.33 32.1326 187.477 32.5746C186.625 33.0167 185.677 33.2377 184.635 33.2377ZM184.825 31.58C185.74 31.58 186.554 31.3669 187.264 30.9406C187.99 30.5144 188.559 29.9302 188.969 29.1882C189.395 28.4304 189.608 27.5858 189.608 26.6543C189.608 25.7071 189.395 24.8624 188.969 24.1204C188.559 23.3784 187.99 22.7943 187.264 22.368C186.554 21.926 185.74 21.705 184.825 21.705C183.925 21.705 183.112 21.926 182.386 22.368C181.659 22.7943 181.083 23.3784 180.657 24.1204C180.231 24.8624 180.017 25.7071 180.017 26.6543C180.017 27.5858 180.231 28.4304 180.657 29.1882C181.083 29.9302 181.659 30.5144 182.386 30.9406C183.112 31.3669 183.925 31.58 184.825 31.58Z" fill={color}/>
<path d="M197.749 33.1193C196.802 33.1193 196.02 32.7404 195.405 31.9826C194.789 31.209 194.481 30.2223 194.481 29.0224V15.5242C194.481 15.2558 194.56 15.0426 194.718 14.8848C194.891 14.7111 195.112 14.6243 195.381 14.6243C195.649 14.6243 195.862 14.7111 196.02 14.8848C196.194 15.0426 196.281 15.2558 196.281 15.5242V29.0224C196.281 29.7013 196.415 30.2539 196.683 30.6801C196.968 31.1064 197.323 31.3195 197.749 31.3195H198.341C198.578 31.3195 198.767 31.4064 198.909 31.58C199.051 31.7379 199.122 31.951 199.122 32.2194C199.122 32.4878 199.02 32.7088 198.815 32.8825C198.625 33.0404 198.373 33.1193 198.057 33.1193H197.749Z" fill={color}/>
<path d="M39.9623 33.2377C38.6993 33.2377 37.5705 32.9535 36.5759 32.3852C35.5813 31.8168 34.7998 31.0354 34.2314 30.0407C33.6631 29.0461 33.3789 27.9173 33.3789 26.6543C33.3789 25.3755 33.6631 24.2388 34.2314 23.2442C34.7998 22.2496 35.5813 21.4681 36.5759 20.8998C37.5705 20.3314 38.6993 20.0473 39.9623 20.0473C41.2253 20.0473 42.3462 20.3314 43.325 20.8998C44.3196 21.4681 45.1011 22.2496 45.6695 23.2442C46.2378 24.2388 46.5299 25.3755 46.5457 26.6543C46.5457 27.9173 46.2536 29.0461 45.6695 30.0407C45.1011 31.0354 44.3196 31.8168 43.325 32.3852C42.3462 32.9535 41.2253 33.2377 39.9623 33.2377ZM39.9623 31.58C40.878 31.58 41.6989 31.3669 42.4251 30.9406C43.1514 30.5144 43.7197 29.9302 44.1302 29.1882C44.5407 28.4462 44.7459 27.6016 44.7459 26.6543C44.7459 25.7071 44.5407 24.8624 44.1302 24.1204C43.7197 23.3626 43.1514 22.7706 42.4251 22.3443C41.6989 21.9181 40.878 21.705 39.9623 21.705C39.0466 21.705 38.2257 21.9181 37.4994 22.3443C36.7732 22.7706 36.197 23.3626 35.7707 24.1204C35.3602 24.8624 35.155 25.7071 35.155 26.6543C35.155 27.6016 35.3602 28.4462 35.7707 29.1882C36.197 29.9302 36.7732 30.5144 37.4994 30.9406C38.2257 31.3669 39.0466 31.58 39.9623 31.58Z" fill={color}/>
<path d="M67.5936 33.2377C66.378 33.2377 65.2887 32.9535 64.3256 32.3852C63.3626 31.801 62.5969 31.0117 62.0286 30.0171C61.476 29.0224 61.1997 27.9015 61.1997 26.6543C61.1997 25.3913 61.4839 24.2625 62.0522 23.2679C62.6364 22.2733 63.4258 21.4918 64.4204 20.9235C65.415 20.3393 66.5359 20.0473 67.7831 20.0473C69.0303 20.0473 70.1433 20.3393 71.1222 20.9235C72.1168 21.4918 72.8983 22.2733 73.4666 23.2679C74.0507 24.2625 74.3507 25.3913 74.3665 26.6543V32.2194C74.3665 32.4878 74.2797 32.7088 74.106 32.8825C73.9323 33.0404 73.7113 33.1193 73.4429 33.1193C73.1745 33.1193 72.9535 33.0404 72.7798 32.8825C72.6062 32.7088 72.5193 32.4878 72.5193 32.2194V30.7749C71.9826 31.5327 71.2879 32.1326 70.4354 32.5746C69.5829 33.0167 68.6356 33.2377 67.5936 33.2377ZM67.7831 31.58C68.6988 31.58 69.5118 31.3669 70.2223 30.9406C70.9485 30.5144 71.5168 29.9302 71.9273 29.1882C72.3536 28.4304 72.5667 27.5858 72.5667 26.6543C72.5667 25.7071 72.3536 24.8624 71.9273 24.1204C71.5168 23.3784 70.9485 22.7943 70.2223 22.368C69.5118 21.926 68.6988 21.705 67.7831 21.705C66.8832 21.705 66.0702 21.926 65.3439 22.368C64.6177 22.7943 64.0415 23.3784 63.6152 24.1204C63.1889 24.8624 62.9758 25.7071 62.9758 26.6543C62.9758 27.5858 63.1889 28.4304 63.6152 29.1882C64.0415 29.9302 64.6177 30.5144 65.3439 30.9406C66.0702 31.3669 66.8832 31.58 67.7831 31.58Z" fill={color}/>
<path d="M99.8123 33.2377C98.5335 33.2377 97.3968 32.9614 96.4022 32.4089C95.4234 31.8405 94.6498 31.059 94.0815 30.0644C93.5289 29.0698 93.2526 27.9331 93.2526 26.6543C93.2526 25.3598 93.5131 24.2231 94.0341 23.2442C94.5709 22.2496 95.305 21.4681 96.2365 20.8998C97.1679 20.3314 98.2415 20.0473 99.4571 20.0473C100.657 20.0473 101.699 20.3235 102.583 20.8761C103.483 21.4129 104.178 22.1628 104.667 23.1258C105.156 24.0889 105.401 25.1861 105.401 26.4175C105.401 26.6701 105.322 26.8754 105.164 27.0332C105.006 27.1753 104.801 27.2464 104.549 27.2464H94.9814C95.0761 28.0989 95.3366 28.8567 95.7628 29.5198C96.1891 30.167 96.7496 30.6801 97.4442 31.059C98.1389 31.4221 98.9282 31.6037 99.8123 31.6037C100.381 31.6037 100.949 31.509 101.517 31.3195C102.102 31.1143 102.567 30.8617 102.915 30.5617C103.088 30.4196 103.286 30.3486 103.507 30.3486C103.728 30.3328 103.917 30.3881 104.075 30.5144C104.28 30.7038 104.383 30.9091 104.383 31.1301C104.399 31.3511 104.312 31.5406 104.122 31.6984C103.601 32.1405 102.938 32.5115 102.133 32.8114C101.328 33.0956 100.554 33.2377 99.8123 33.2377ZM99.4571 21.6813C98.2415 21.6813 97.239 22.0602 96.4496 22.818C95.6602 23.56 95.1866 24.5309 95.0287 25.7308H103.696C103.57 24.5309 103.128 23.56 102.37 22.818C101.628 22.0602 100.657 21.6813 99.4571 21.6813Z" fill={color}/>
<path d="M109.386 33.1193C108.786 33.1193 108.486 32.8193 108.486 32.2194V21.0656C108.486 20.4656 108.786 20.1657 109.386 20.1657C109.986 20.1657 110.286 20.4656 110.286 21.0656V22.0839C110.759 21.4524 111.343 20.955 112.038 20.5919C112.733 20.213 113.498 20.0236 114.335 20.0236C115.061 20.0236 115.622 20.1262 116.016 20.3314C116.411 20.5367 116.561 20.8366 116.466 21.2313C116.387 21.5944 116.198 21.7839 115.898 21.7997C115.614 21.7997 115.274 21.7839 114.88 21.7523C113.996 21.6734 113.206 21.7681 112.512 22.0365C111.833 22.2891 111.288 22.6838 110.878 23.2206C110.483 23.7573 110.286 24.3967 110.286 25.1387V32.2194C110.286 32.8193 109.986 33.1193 109.386 33.1193Z" fill={color}/>
</svg>
